# xmcd CD database file
#
# Track frame offsets:
#	150
#	14120
#	24849
#	35562
#	49452
#	63589
#	77885
#	93907
#	107875
#	118173
#	134185
#	147186
#	159369
#	173844
#	186918
#	206339
#	221629
#	235101
#	249690
#	262329
#
# Disc length: 3664 seconds
#
# Revision: 0
# Processed by: cddbd v1.5.2PL0 Copyright (c) Steve Scherf et al.
# Submitted via: CDex 1.70beta2
#
DISCID=320e4e14
DTITLE=Various Artist - Cafe Jazz 2 - CD 1
DYEAR=2010
DGENRE=Jazz
TTITLE0=Oscar Peterson - Smoke Gets In Your Eyes
TTITLE1=Laurindo Almeida and Bud Shank - Speak Low
TTITLE2=Nat King Cole - When I Take My Sugar To Tea
TTITLE3=Dave Brubeck Quartet - Stardust
TTITLE4=Duke Ellington - Sultry Sunset
TTITLE5=Billie Holiday - As Time Goes By
TTITLE6=Charlie Parker and Strings - Just Friends
TTITLE7=Illinois Jacquet - Don't Blame Me
TTITLE8=Peggy Lee - I Didn't Know What Time It Was
TTITLE9=Lester Young - Almost Like Being In Love
TTITLE10=Django Reinhardt - All The Things You Are
TTITLE11=Johnny Mercer - My Sugar Is So Refined
TTITLE12=Don Byas - Stormy Weather
TTITLE13=Coleman Hawkins A His Orchestra - Say It Isn't So
TTITLE14=June Christy - Something Cool
TTITLE15=Teddy Wilson and Benny Goodman - Where Or When
TTITLE16=Bud Powell - Celia
TTITLE17=Billy Eckstine - Somehow
TTITLE18=Miles Davis - Deception
TTITLE19=Ella Fitzgerald - Careless
EXTD=YEAR: 2010
EXTT0=
EXTT1=
EXTT2=
EXTT3=
EXTT4=
EXTT5=
EXTT6=
EXTT7=
EXTT8=
EXTT9=
EXTT10=
EXTT11=
EXTT12=
EXTT13=
EXTT14=
EXTT15=
EXTT16=
EXTT17=
EXTT18=
EXTT19=
PLAYORDER=
